<?xml version="1.0" encoding="utf-8"?>
<!-- Generator: Adobe Illustrator 21.0.0, SVG Export Plug-In . SVG Version: 6.00 Build 0)  -->
<svg version="1.1" id="Layer_1" xmlns="http://www.w3.org/2000/svg" xmlns:xlink="http://www.w3.org/1999/xlink" x="0px" y="0px"
	 viewBox="0 0 227 226" style="enable-background:new 0 0 227 226;" xml:space="preserve">
<style type="text/css">
	.st0{fill:url(#SVGID_1_);}
	.st1{fill:none;stroke:#0B1119;stroke-width:6.5253;stroke-miterlimit:10;}
	.st2{fill:#0B1119;}
	.st3{fill:none;}
</style>
<g>
	
		<linearGradient id="SVGID_1_" gradientUnits="userSpaceOnUse" x1="3891.0317" y1="1987.3311" x2="3891.0317" y2="1770.9185" gradientTransform="matrix(-1 0 0 -1 4004.1318 1992.7002)">
		<stop  offset="0" style="stop-color:#CC8A6D"/>
		<stop  offset="9.602536e-02" style="stop-color:#D49C83"/>
		<stop  offset="0.2963" style="stop-color:#E8C9BC"/>
		<stop  offset="0.5107" style="stop-color:#FFFFFF"/>
		<stop  offset="0.6234" style="stop-color:#DEDEDD"/>
		<stop  offset="0.793" style="stop-color:#B3B1B0"/>
		<stop  offset="0.9242" style="stop-color:#989593"/>
		<stop  offset="1" style="stop-color:#8E8B89"/>
	</linearGradient>
	<circle class="st0" cx="113.1" cy="113.6" r="108.2"/>
	
		<ellipse transform="matrix(0.9875 -0.1578 0.1578 0.9875 -16.4424 19.2916)" class="st1" cx="113.3" cy="113.2" rx="108.2" ry="108.2"/>
	<g>
		<path class="st2" d="M32.2,86.8c-0.2,0.7-0.4,1.4-0.7,2.2c0.3-0.5,0.5-1,0.8-1.5C32.3,87.4,32.3,87.2,32.2,86.8z"/>
		<path class="st2" d="M31.4,89.1c-0.6,1.2-1.2,2.4-1.7,3.6c0.7-1.2,1.3-2.5,1.8-3.8C31.5,89,31.5,89.1,31.4,89.1z"/>
		<path class="st2" d="M119,151.4c-1.3,1-3.7-3.1-5.4-0.5c-0.5,0.8-1.7-0.5-2.6-0.4c-0.9,0.2-1.8,0.5-2.7,0.5c0.2,1.6,1,3.2,2.2,4.4
			c5,4.5,14.7-2.3,12.1-8.2C121.2,149.6,121.5,149.6,119,151.4z"/>
	</g>
	<g>
		<path class="st2" d="M188.4,104.6c0,0-28.9-20.9-39.7-25.3c-10.8-4.3-20.2-4.3-20.2-4.3s3.2-2.2,3.6-5.1c0.7-5.1-2.2-9.4-2.2-9.4
			s26-1.4,39.7,3.6c10.3,3.8,20.9,10.8,21.7,23.1C191.8,95.4,188.4,104.6,188.4,104.6z"/>
		<path class="st2" d="M129.2,74.9c0,0,2.2-2.2,2.2-4.3c0-1.4,0.7-3.6-2.2-7.9c-2-3-7.2-2.2-7.2-2.2s7.2-16.6-3.6-22.4
			s-24.6-2.2-28.2,0s-2.9,10.1-2.9,10.1l10.8,1.4c0,0,6.5-6.5,12.3-3.6c6,3,8.4,11,7.2,14.4c-2.2,6.5,2.9,11.6,4.3,13
			C123.4,74.9,129.2,74.9,129.2,74.9z"/>
	</g>
	<g>
		<path class="st3" d="M67.8,62.3c0,0.1,0,0.1,0,0.2C67.8,62.5,67.8,62.5,67.8,62.3z"/>
		<path class="st3" d="M29.8,92.8c0,0,0-0.1,0.1-0.2C29.8,92.8,29.8,92.8,29.8,92.8z"/>
		<path class="st3" d="M31.4,89.2c-0.2,0.5-0.6,1.3-0.9,2C30.8,90.6,31.1,89.9,31.4,89.2z"/>
		<path class="st3" d="M32,87.4c0.1-0.3,0.2-0.5,0.2-0.6C32.2,87,32.1,87.2,32,87.4z"/>
		<path class="st3" d="M89.5,87.3c2.5-0.9,1.6-2.8,4.2-1.8c0.3,0.1,0.5-0.2,0.3-0.4c-3.1-2.9-6.2-7.8-5.5-4.8
			c0.7,2.9-6.9,2.7-4.2,7.1C85.3,89,87,88.2,89.5,87.3z"/>
		<path class="st2" d="M67.3,59.5c0.2,1.2,0.4,2.4,0.4,2.8C68,61.2,67.8,60.3,67.3,59.5z"/>
		<path class="st2" d="M31.5,88.9c0,0.1-0.1,0.2-0.1,0.3C31.5,89,31.6,88.8,31.5,88.9z"/>
		<path class="st2" d="M66.9,56.2C67,56.8,67.2,56.8,66.9,56.2L66.9,56.2z"/>
		<path class="st2" d="M30.5,91.3c-0.1,0.1-0.1,0.3-0.2,0.4c-0.2,0.4-0.3,0.7-0.4,0.9C30,92.3,30.3,91.8,30.5,91.3z"/>
		<path class="st2" d="M201.5,134.1c-3.7,3.4-7,7.1-12.4,8.3c0.5-1,0.7-1.4,0.9-1.8c2.7-6.7,6.1-13.2,8-20.2
			c6.2-22,2.4-42.6-10.6-61.4c-9.1-13.2-20.9-23.3-35.7-29.7c-4.5-1.9-9-3.7-13.5-5.6c-0.4,0.7-0.2,0.4-0.6,1.1
			c11.6,7.1,21.2,16,25.3,29.8c0.6,0,0.6,0,1.3,0c1.1-3,2.2-5.9,3.3-9.1c0.1-0.2,0.3-0.2,0.4,0c16.1,17.9,31.3,51.1,8.3,71.8
			c-0.2,0.1,0,0.4,0.2,0.4c4.1-0.4,7.1-2.8,10.5-5.2c0.2-0.1,0.4,0,0.4,0.2c-1.6,13-7.2,23-17.4,30.5c-0.8,0.6,5-2.9,4.6-2
			c-1.9,3.8-3.2,9.6-5.5,13.1c-4.6,6.9-4.7,17.6-7.3,25.9c-0.1,0.2-0.4,0.2-0.5,0c-1.4-3.1-7.4-18.5-13.1-21.6
			c-0.1-0.1-0.3,0-0.3,0.1c-1.3,3.6-2.7,19-4,22.9c-0.1,0.2-0.3,0.2-0.4,0.1c-4.6-5.3-12.4-15.8-12.3-22.1c0-0.2-0.2-0.3-0.4-0.2
			c-5.1,3.2-9.5,3.8-16.2,3.3c-6.3-0.5-10.8-3.4-11.5-3.9c-0.1,0-0.1-0.1-0.2,0c-1.9,0.7-28,9.8-36.8,9.7c-0.1,0-0.2-0.1-0.2-0.2
			c-2.7-12.8-0.2-15.2,3-19.9c3.4-4.8,6.8-4.2,14.1-8.3c1.6-0.9,3.2-4.4,3.6-5.2c0-0.1,0.2-0.2,0.3-0.1l6.2,1.2c0.1,0,0.2,0,0.3-0.2
			l1.8-4.8c0.1-0.1,0.2-0.2,0.3-0.1c1,0.5,4.9,2.3,5.9,2.5c0.7,0.1,1.9-3.7,2.2-4.6c0-0.1,0.1-0.2,0.3-0.2c0.9,0.1,4.5,0.6,5.7,0.2
			c14.2-3.9,9.7-6.3,9.8-7.2c0-0.9-1.6-8-9.6-3.3c-2.7,1.6-8.2,3-11.9,3.8c-10.5,2.4-16.3-2.1-15.6-2.6c5.7-4.1,3.6-1.2,6.7-7.2
			c0.1-0.1,0.2-0.2,0.3-0.1c11,6.5,13.8-3.6,22.3-6.2c7.2-2.2,11.9-4.8,14.8-13.2c0.6-1.6,2.2-2.4,2.5-4.1c0.5-2.7,1.1-9-3.1-9.6
			c-5.4-0.7-14.3,0.2-21.4,0c-3.4-0.1-1.8-2.4-3.8-5c0,0,0,0,0,0c-4-8.3-9.6-8.4-17.2-7.6c-0.2,0-0.3-0.1-0.3-0.3
			c0.6-7.7-9.4-9-15-13.4c-0.1-0.1-0.3,0-0.4,0.1c-0.8,1.5-0.7,2.6-0.6,3.2c0.3,0.6,0.1,0.6,0,0c-0.1-0.1-0.1-0.2-0.2-0.4
			c-0.1-0.1,0.3,1.9,0.7,3.7c0.5,0.8,0.7,1.7,0.4,2.8c0,0.1,0,0.2,0,0.2c0-0.1,0-0.1,0-0.2c0-0.4-0.2-1.6-0.4-2.8
			c-2.9-4.4-16.2-4-19.8-6.8c-0.1-0.1-0.3-0.1-0.3,0.1c-3.6,4.8,0.1,5-3.4,9.7c-1.9,2.6-0.7,1.4-2.5,4.1c-0.6,0.8-1.3,2.3-2.1,2.9
			c-3.8,2.7-2.5-1.1-8.3,6.5c-5.5,7.3-5,16-6.2,22.4c0,0.2,0.2,0.4,0.4,0.2c1.7-1.4,3.3-3.6,4.7-5.9c0,0,0,0,0,0
			c0.4-0.9,0.8-1.8,1.3-2.7c0.4-1,0.8-2,1-2.6c0.1-0.2,0.1-0.4,0.2-0.6c0,0.1-0.1,0.3-0.2,0.6c-0.1,0.5-0.3,1-0.5,1.6
			c0.1-0.1,0,0-0.1,0.3c-0.3,0.7-0.6,1.3-0.9,2c-0.2,0.5-0.5,1-0.6,1.3c0,0.1-0.1,0.2-0.1,0.2c0,0.1,0,0,0.1-0.2
			c0.1-0.2,0.2-0.5,0.4-0.9c-0.2,0.4-0.4,0.7-0.6,1.1c0,0,0,0,0,0c-8.4,18.6-9.2,38-1.5,57c9.5,23.5,26.8,39.9,50.7,49
			c3.5,1.3,7.2,2.4,10.8,3.5c0.2,0.1,0.4-0.2,0.3-0.4c-2.8-3.8-6.1-6.9-7.5-11.9c-0.1-0.2,0.2-0.4,0.4-0.3c1.1,0.6,1.8,0.9,2.6,1.3
			c27.5,13.7,54.4,14.5,80.6-3.6c18.8-13,29.7-31.2,35.9-53.1C201.9,134.2,201.6,134,201.5,134.1z M88.5,80.3
			c-0.7-3,2.4,1.9,5.5,4.8c0.2,0.2,0,0.5-0.3,0.4c-2.5-1-1.7,0.8-4.2,1.8c-2.5,0.9-4.2,1.7-5.2,0.1C81.6,83,89.2,83.2,88.5,80.3z
			 M58.9,149.7c0,0-0.5-0.5-1.4,0c-1.4,0.7-1.4,2.9-1.4,2.9l-4.3-7.2l-5.1,6.5l3.6,9.4l5.1-2.9c0,0-0.2,1.5,0.7,2.9
			c1.4,2.2,2.2,1.4,2.2,1.4v1.4v1.4c0,0-5.1,1.4-14.4-7.9c-9.4-9.4-20.7-35-20.7-35v-12.3c0,0,7.5,14.9,21.5,25.6
			c9.4,7.2,15.2,7.9,15.2,7.9L58.9,149.7z"/>
		<path class="st2" d="M31.5,88.9c0.2-0.5,0.4-1.1,0.5-1.6C31.8,88,31.4,89,31,90c0.1-0.3,0.3-0.6,0.4-0.9
			C31.5,89.1,31.5,89,31.5,88.9z"/>
		<path class="st2" d="M31.4,89.2c0-0.1,0.1-0.2,0.1-0.3c0,0.1-0.1,0.1-0.1,0.2c-0.1,0.3-0.3,0.6-0.4,0.9c-0.2,0.6-0.5,1.2-0.7,1.6
			c0.1-0.1,0.1-0.3,0.2-0.4C30.8,90.5,31.2,89.7,31.4,89.2z"/>
	</g>
</g>
</svg>
