<?xml version="1.0" encoding="utf-8"?>
<!-- Generator: Adobe Illustrator 21.0.0, SVG Export Plug-In . SVG Version: 6.00 Build 0)  -->
<svg version="1.1" id="Layer_1" xmlns="http://www.w3.org/2000/svg" xmlns:xlink="http://www.w3.org/1999/xlink" x="0px" y="0px"
	 viewBox="0 0 227 228" style="enable-background:new 0 0 227 228;" xml:space="preserve">
<style type="text/css">
	.st0{fill:url(#SVGID_1_);}
	.st1{fill:none;stroke:#0B1119;stroke-width:6.5253;stroke-miterlimit:10;}
	.st2{fill:#0B1119;}
	.st3{fill:none;}
</style>
<g>
	
		<linearGradient id="SVGID_1_" gradientUnits="userSpaceOnUse" x1="3617.0317" y1="1712.3311" x2="3617.0317" y2="1495.9185" gradientTransform="matrix(1 0 0 1 -3503.7466 -1491.9185)">
		<stop  offset="0" style="stop-color:#CC8A6D"/>
		<stop  offset="9.602536e-02" style="stop-color:#D49C83"/>
		<stop  offset="0.2963" style="stop-color:#E8C9BC"/>
		<stop  offset="0.5107" style="stop-color:#FFFFFF"/>
		<stop  offset="0.6234" style="stop-color:#DEDEDD"/>
		<stop  offset="0.793" style="stop-color:#B3B1B0"/>
		<stop  offset="0.9242" style="stop-color:#989593"/>
		<stop  offset="1" style="stop-color:#8E8B89"/>
	</linearGradient>
	<circle class="st0" cx="113.3" cy="112.2" r="108.2"/>
	
		<ellipse transform="matrix(0.9875 -0.1578 0.1578 0.9875 -16.3451 19.2546)" class="st1" cx="113.1" cy="112.6" rx="108.2" ry="108.2"/>
	<g>
		<path class="st2" d="M194.2,139c0.2-0.7,0.4-1.4,0.7-2.2c-0.3,0.5-0.5,1-0.8,1.5C194,138.4,194.1,138.6,194.2,139z"/>
		<path class="st2" d="M194.9,136.7c0.6-1.2,1.2-2.4,1.7-3.6c-0.7,1.2-1.3,2.5-1.8,3.8C194.9,136.8,194.9,136.7,194.9,136.7z"/>
		<path class="st2" d="M107.4,74.4c1.3-1,3.7,3.1,5.4,0.5c0.5-0.8,1.7,0.5,2.6,0.4c0.9-0.2,1.8-0.5,2.7-0.5c-0.2-1.6-1-3.2-2.2-4.4
			c-5-4.5-14.7,2.3-12.1,8.2C105.2,76.2,104.9,76.2,107.4,74.4z"/>
	</g>
	<g>
		<path class="st2" d="M38,121.2c0,0,28.9,20.9,39.7,25.3c10.8,4.3,20.2,4.3,20.2,4.3s-3.2,2.2-3.6,5.1c-0.7,5.1,2.2,9.4,2.2,9.4
			s-26,1.4-39.7-3.6c-10.3-3.8-20.9-10.8-21.7-23.1C34.6,130.3,38,121.2,38,121.2z"/>
		<path class="st2" d="M97.2,150.8c0,0-2.2,2.2-2.2,4.3c0,1.4-0.7,3.6,2.2,7.9c2,3,7.2,2.2,7.2,2.2s-7.2,16.6,3.6,22.4
			s24.6,2.2,28.2,0s2.9-10.1,2.9-10.1l-10.8-1.4c0,0-6.5,6.5-12.3,3.6c-6-3-8.4-11-7.2-14.4c2.2-6.5-2.9-11.6-4.3-13
			C103,150.8,97.2,150.8,97.2,150.8z"/>
	</g>
	<g>
		<path class="st3" d="M158.6,163.4c0-0.1,0-0.1,0-0.2C158.6,163.3,158.6,163.3,158.6,163.4z"/>
		<path class="st3" d="M196.6,133c0,0,0,0.1-0.1,0.2C196.6,133,196.6,132.9,196.6,133z"/>
		<path class="st3" d="M195,136.5c0.2-0.5,0.6-1.3,0.9-2C195.5,135.2,195.2,135.9,195,136.5z"/>
		<path class="st3" d="M194.3,138.4c-0.1,0.3-0.2,0.5-0.2,0.6C194.2,138.8,194.3,138.6,194.3,138.4z"/>
		<path class="st3" d="M136.8,138.5c-2.5,0.9-1.6,2.8-4.2,1.8c-0.3-0.1-0.5,0.2-0.3,0.4c3.1,2.9,6.2,7.8,5.5,4.8
			c-0.7-2.9,6.9-2.7,4.2-7.1C141.1,136.8,139.4,137.6,136.8,138.5z"/>
		<path class="st2" d="M159.1,166.3c-0.2-1.2-0.4-2.4-0.4-2.8C158.4,164.6,158.5,165.5,159.1,166.3z"/>
		<path class="st2" d="M194.9,136.8c0-0.1,0.1-0.2,0.1-0.3C194.9,136.8,194.8,137,194.9,136.8z"/>
		<path class="st2" d="M159.5,169.6C159.4,169,159.2,168.9,159.5,169.6L159.5,169.6z"/>
		<path class="st2" d="M195.9,134.5c0.1-0.1,0.1-0.3,0.2-0.4c0.2-0.4,0.3-0.7,0.4-0.9C196.4,133.5,196.1,134,195.9,134.5z"/>
		<path class="st2" d="M24.9,91.6c3.7-3.4,7-7.1,12.4-8.3c-0.5,1-0.7,1.4-0.9,1.8c-2.7,6.7-6.1,13.2-8,20.2
			c-6.2,22-2.4,42.6,10.6,61.4c9.1,13.2,20.9,23.3,35.7,29.7c4.5,1.9,9,3.7,13.5,5.6c0.4-0.7,0.2-0.4,0.6-1.1
			c-11.6-7.1-21.2-16-25.3-29.8c-0.6,0-0.6,0-1.3,0c-1.1,3-2.2,5.9-3.3,9.1c-0.1,0.2-0.3,0.2-0.4,0c-16.1-17.9-31.3-51.1-8.3-71.8
			c0.2-0.1,0-0.4-0.2-0.4c-4.1,0.4-7.1,2.8-10.5,5.2c-0.2,0.1-0.4,0-0.4-0.2c1.6-13,7.2-23,17.4-30.5c0.8-0.6-5,2.9-4.6,2
			c1.9-3.8,3.2-9.6,5.5-13.1c4.6-6.9,4.7-17.6,7.3-25.9c0.1-0.2,0.4-0.2,0.5,0c1.4,3.1,7.4,18.5,13.1,21.6c0.1,0.1,0.3,0,0.3-0.1
			c1.3-3.6,2.7-19,4-22.9c0.1-0.2,0.3-0.2,0.4-0.1c4.6,5.3,12.4,15.8,12.3,22.1c0,0.2,0.2,0.3,0.4,0.2c5.1-3.2,9.5-3.8,16.2-3.3
			c6.3,0.5,10.8,3.4,11.5,3.9c0.1,0,0.1,0.1,0.2,0c1.9-0.7,28-9.8,36.8-9.7c0.1,0,0.2,0.1,0.2,0.2c2.7,12.8,0.2,15.2-3,19.9
			c-3.4,4.8-6.8,4.2-14.1,8.3c-1.6,0.9-3.2,4.4-3.6,5.2c0,0.1-0.2,0.2-0.3,0.1l-6.2-1.2c-0.1,0-0.2,0-0.3,0.2l-1.8,4.8
			c-0.1,0.1-0.2,0.2-0.3,0.1c-1-0.5-4.9-2.3-5.9-2.5c-0.7-0.1-1.9,3.7-2.2,4.6c0,0.1-0.1,0.2-0.3,0.2c-0.9-0.1-4.5-0.6-5.7-0.2
			c-14.2,3.9-9.7,6.3-9.8,7.2c0,0.9,1.6,8,9.6,3.3c2.7-1.6,8.2-3,11.9-3.8c10.5-2.4,16.3,2.1,15.6,2.6c-5.7,4.1-3.6,1.2-6.7,7.2
			c-0.1,0.1-0.2,0.2-0.3,0.1c-11-6.5-13.8,3.6-22.3,6.2c-7.2,2.2-11.9,4.8-14.8,13.2c-0.6,1.6-2.2,2.4-2.5,4.1
			c-0.5,2.7-1.1,9,3.1,9.6c5.4,0.7,14.3-0.2,21.4,0c3.4,0.1,1.8,2.4,3.8,5c0,0,0,0,0,0c4,8.3,9.6,8.4,17.2,7.6
			c0.2,0,0.3,0.1,0.3,0.3c-0.6,7.7,9.4,9,15,13.4c0.1,0.1,0.3,0,0.4-0.1c0.8-1.5,0.7-2.6,0.6-3.2c-0.3-0.6-0.1-0.6,0,0
			c0.1,0.1,0.1,0.2,0.2,0.4c0.1,0.1-0.3-1.9-0.7-3.7c-0.5-0.8-0.7-1.7-0.4-2.8c0-0.1,0-0.2,0-0.2c0,0.1,0,0.1,0,0.2
			c0,0.4,0.2,1.6,0.4,2.8c2.9,4.4,16.2,4,19.8,6.8c0.1,0.1,0.3,0.1,0.3-0.1c3.6-4.8-0.1-5,3.4-9.7c1.9-2.6,0.7-1.4,2.5-4.1
			c0.6-0.8,1.3-2.3,2.1-2.9c3.8-2.7,2.5,1.1,8.3-6.5c5.5-7.3,5-16,6.2-22.4c0-0.2-0.2-0.4-0.4-0.2c-1.7,1.4-3.3,3.6-4.7,5.9
			c0,0,0,0,0,0c-0.4,0.9-0.8,1.8-1.3,2.7c-0.4,1-0.8,2-1,2.6c-0.1,0.2-0.1,0.4-0.2,0.6c0-0.1,0.1-0.3,0.2-0.6c0.1-0.5,0.3-1,0.5-1.6
			c-0.1,0.1,0,0,0.1-0.3c0.3-0.7,0.6-1.3,0.9-2c0.2-0.5,0.5-1,0.6-1.3c0-0.1,0.1-0.2,0.1-0.2c0-0.1,0,0-0.1,0.2
			c-0.1,0.2-0.2,0.5-0.4,0.9c0.2-0.4,0.4-0.7,0.6-1.1c0,0,0,0,0,0c8.4-18.6,9.2-38,1.5-57c-9.5-23.5-26.8-39.9-50.7-49
			c-3.5-1.3-7.2-2.4-10.8-3.5c-0.2-0.1-0.4,0.2-0.3,0.4c2.8,3.8,6.1,6.9,7.5,11.9c0.1,0.2-0.2,0.4-0.4,0.3c-1.1-0.6-1.8-0.9-2.6-1.3
			C113.5,21,86.6,20.2,60.5,38.3c-18.8,13-29.7,31.2-35.9,53.1C24.5,91.6,24.8,91.8,24.9,91.6z M137.9,145.5c0.7,3-2.4-1.9-5.5-4.8
			c-0.2-0.2,0-0.5,0.3-0.4c2.5,1,1.7-0.8,4.2-1.8c2.5-0.9,4.2-1.7,5.2-0.1C144.8,142.8,137.2,142.6,137.9,145.5z M167.5,76.1
			c0,0,0.5,0.5,1.4,0c1.4-0.7,1.4-2.9,1.4-2.9l4.3,7.2l5.1-6.5l-3.6-9.4l-5.1,2.9c0,0,0.2-1.5-0.7-2.9c-1.4-2.2-2.2-1.4-2.2-1.4
			v-1.4v-1.4c0,0,5.1-1.4,14.4,7.9c9.4,9.4,20.7,35,20.7,35v12.3c0,0-7.5-14.9-21.5-25.6c-9.4-7.2-15.2-7.9-15.2-7.9L167.5,76.1z"/>
		<path class="st2" d="M194.9,136.8c-0.2,0.5-0.4,1.1-0.5,1.6c0.2-0.6,0.6-1.7,1-2.6c-0.1,0.3-0.3,0.6-0.4,0.9
			C194.9,136.7,194.9,136.8,194.9,136.8z"/>
		<path class="st2" d="M195,136.5c0,0.1-0.1,0.2-0.1,0.3c0-0.1,0.1-0.1,0.1-0.2c0.1-0.3,0.3-0.6,0.4-0.9c0.2-0.6,0.5-1.2,0.7-1.6
			c-0.1,0.1-0.1,0.3-0.2,0.4C195.5,135.3,195.2,136.1,195,136.5z"/>
	</g>
</g>
</svg>
